<svg width="370" height="52" viewBox="0 0 370 52" fill="none" xmlns="http://www.w3.org/2000/svg">
<path d="M45.0046 24.8975L40.8632 14.237L35.4614 26.0065C33.6362 29.71 27.6655 30.7863 23.4873 31.3797L24.2444 29.8041L36.333 6.61719H45.7576L52.5099 20.6783L55.4686 27.3488L61.5661 40.7306L57.3633 40.7224L54.0854 40.7019C52.7063 40.7224 51.3599 40.6201 50.787 39.1427L49.6248 36.2863L47.6769 31.4492L45.0046 24.8975Z" fill="#006F4E"/>
<path d="M47.7254 31.4985C41.3046 34.8092 34.7774 38.083 27.3049 39.8018C20.3439 41.4019 12.6831 41.6106 7.33859 38.5086C2.52605 35.7259 0.954613 30.2708 1.04464 26.2645C1.10603 23.6413 2.38282 19.9705 4.8914 16.9136C9.56071 11.2171 18.3673 6.2859 25.3815 6.06082C27.8819 5.97898 29.4697 6.80971 30.4191 12.985C27.8215 12.9473 25.2393 13.3914 22.8034 14.2945C19.6678 15.4872 16.6995 17.08 13.9722 19.0334C9.02871 22.5159 6.20912 25.9985 5.91447 29.301C5.65666 32.2024 8.35348 33.9212 12.8264 34.2936C23.4172 35.198 35.6573 30.144 45.0532 24.9427L52.5544 20.7235L67.8923 12.3916L67.8432 20.2038L55.5172 27.394L47.7254 31.4985Z" fill="#009B9D"/>
<path d="M1 44.5654H63.2315V50H1V44.5654Z" fill="#006F4E"/>
<path d="M65.3188 4.35046L56.4672 9.07706C56.4672 9.07706 53.4225 10.7467 51.4746 11.1641L52.8496 14.352C53.2589 15.6861 54.7607 16.1322 55.9311 15.5347L67.8192 9.04432V3L65.3188 4.35046Z" fill="#ED1C24"/>
<path d="M23.1924 8.69693C25.5455 8.8197 29.5109 7.16232 30.4194 13.1739C29.3185 12.8342 27.1742 13.1248 25.9506 13.3785" fill="#009B9D"/>
<path d="M107.883 21.0821V7.75223H103.284V20.8783C103.284 23.2358 102.237 24.2545 100.549 24.2545C99.1224 24.2545 97.9873 23.4977 96.8231 22.2171L94 25.3604C95.397 27.0194 97.4925 28.4164 100.665 28.4164C104.972 28.4164 107.883 26.0298 107.883 21.0821Z" fill="#308276"/>
<path d="M111.214 15.2903L111.592 17.1239C115.056 17.0657 116.977 15.5231 116.977 11.6813V7.75223H112.262V12.4089H114.066C114.212 14.0679 113.222 15.0866 111.214 15.2903Z" fill="#308276"/>
<path d="M136.888 28.1254V24.138H125.828V19.8597H135.433V15.8724H125.828V11.7395H136.742V7.75223H121.375V28.1254H136.888ZM129.99 6.15149L133.716 2.65895L129.903 1L126.614 6.15149H129.99Z" fill="#308276"/>
<path d="M159.063 24.8365L156.211 21.9552C154.61 23.4104 153.184 24.3418 150.856 24.3418C147.363 24.3418 144.948 21.4313 144.948 17.9388V17.8806C144.948 14.3881 147.421 11.5358 150.856 11.5358C152.893 11.5358 154.494 12.4089 156.065 13.8351L158.918 10.5463C157.026 8.68358 154.727 7.40298 150.885 7.40298C144.627 7.40298 140.262 12.147 140.262 17.9388V17.997C140.262 23.847 144.715 28.4746 150.71 28.4746C154.639 28.4746 156.968 27.0776 159.063 24.8365Z" fill="#308276"/>
<path d="M183.125 17.9388V17.8806C183.125 12.0888 178.614 7.40298 172.328 7.40298C166.041 7.40298 161.472 12.147 161.472 17.9388V17.997C161.472 23.7888 165.983 28.4746 172.269 28.4746C178.556 28.4746 183.125 23.7306 183.125 17.9388ZM178.44 17.997C178.44 21.4895 175.937 24.3418 172.328 24.3418C168.719 24.3418 166.157 21.4313 166.157 17.9388V17.8806C166.157 14.3881 168.66 11.5358 172.269 11.5358C175.878 11.5358 178.44 14.4463 178.44 17.9388V17.997Z" fill="#308276"/>
<path d="M205.001 28.1254L200.024 20.8492C202.614 19.8888 204.389 17.8224 204.389 14.5336V14.4754C204.389 10.2843 201.508 7.75223 196.706 7.75223H187.392V28.1254H191.874V21.606H195.396L199.762 28.1254H205.001ZM199.849 14.7664C199.849 16.4836 198.598 17.6477 196.415 17.6477H191.874V11.7978H196.327C198.51 11.7978 199.849 12.7873 199.849 14.7082V14.7664Z" fill="#0A94A8"/>
<path d="M224.229 28.1254V24.138H213.169V19.8597H222.773V15.8724H213.169V11.7395H224.083V7.75223H208.716V28.1254H224.229ZM217.331 6.15149L221.056 2.65895L217.243 1L213.955 6.15149H217.331Z" fill="#0A94A8"/>
<path d="M246.608 28.1254V7.75223H242.184V20.2963L232.637 7.75223H228.505V28.1254H232.929V15.1739L242.795 28.1254H246.608Z" fill="#0A94A8"/>
<path d="M272.541 17.9388V17.8806C272.541 12.0888 268.03 7.40298 261.743 7.40298C255.456 7.40298 250.887 12.147 250.887 17.9388V17.997C250.887 23.7888 255.398 28.4746 261.685 28.4746C267.971 28.4746 272.541 23.7306 272.541 17.9388ZM267.855 17.997C267.855 21.4895 265.352 24.3418 261.743 24.3418C258.134 24.3418 255.573 21.4313 255.573 17.9388V17.8806C255.573 14.3881 258.076 11.5358 261.685 11.5358C265.294 11.5358 267.855 14.4463 267.855 17.9388V17.997Z" fill="#0A94A8"/>
<path d="M294.185 7.75223H289.354L284.028 22.1007L278.702 7.75223H273.754L281.991 28.2709H285.949L294.185 7.75223Z" fill="#0A94A8"/>
<path d="M313.132 28.1254V24.138H302.073V19.8597H311.677V15.8724H302.073V11.7395H312.987V7.75223H297.62V28.1254H313.132Z" fill="#0A94A8"/>
<path d="M113.322 50.6813V32.0908H108.914L104.027 39.9519L99.1406 32.0908H94.732V50.6813H98.7422V38.6241L103.921 46.4852H104.027L109.259 38.5444V50.6813H113.322Z" fill="#308276"/>
<path d="M135.928 41.3861V41.333C135.928 36.0479 131.811 31.7721 126.075 31.7721C120.338 31.7721 116.168 36.1011 116.168 41.3861V41.4392C116.168 46.7242 120.285 51 126.021 51C131.758 51 135.928 46.6711 135.928 41.3861ZM131.652 41.4392C131.652 44.6261 129.368 47.2288 126.075 47.2288C122.781 47.2288 120.444 44.573 120.444 41.3861V41.333C120.444 38.146 122.728 35.5434 126.021 35.5434C129.315 35.5434 131.652 38.1991 131.652 41.3861V41.4392Z" fill="#308276"/>
<path d="M155.278 50.6813V32.0908H151.241V43.5373L142.53 32.0908H138.759V50.6813H142.796V38.8631L151.799 50.6813H155.278Z" fill="#308276"/>
<path d="M179.468 50.6813V46.9632H170.199V32.0908H166.109V50.6813H179.468Z" fill="#308276"/>
<path d="M199.628 41.3861V41.333C199.628 36.0479 195.511 31.7721 189.775 31.7721C184.038 31.7721 179.869 36.1011 179.869 41.3861V41.4392C179.869 46.7242 183.985 51 189.722 51C195.458 51 199.628 46.6711 199.628 41.3861ZM195.352 41.4392C195.352 44.6261 193.068 47.2288 189.775 47.2288C186.482 47.2288 184.145 44.573 184.145 41.3861V41.333C184.145 38.146 186.429 35.5434 189.722 35.5434C193.015 35.5434 195.352 38.1991 195.352 41.3861V41.4392Z" fill="#308276"/>
<path d="M219.35 48.0521V39.9785H211.276V43.5107H215.393V46.1665C214.357 46.9101 213.029 47.2819 211.542 47.2819C208.249 47.2819 205.912 44.7855 205.912 41.3861V41.333C205.912 38.1726 208.275 35.5434 211.25 35.5434C213.401 35.5434 214.676 36.2339 216.11 37.429L218.686 34.3217C216.747 32.6751 214.729 31.7721 211.383 31.7721C205.752 31.7721 201.636 36.1011 201.636 41.3861V41.4392C201.636 46.9366 205.62 51 211.409 51C214.809 51 217.438 49.6721 219.35 48.0521Z" fill="#308276"/>
<path d="M236.644 50.6813V47.0429H226.552V43.1389H235.316V39.5005H226.552V35.7293H236.511V32.0908H222.489V50.6813H236.644Z" fill="#308276"/>
<path d="M258.074 50.6813V32.0908H253.665L248.779 39.9519L243.892 32.0908H239.483V50.6813H243.494V38.6241L248.672 46.4852H248.779L254.011 38.5444V50.6813H258.074Z" fill="#308276"/>
<path d="M275.899 50.6813V47.0429H265.807V43.1389H274.571V39.5005H265.807V35.7293H275.766V32.0908H261.743V50.6813H275.899Z" fill="#308276"/>
<path d="M295.257 50.6813V32.0908H291.22V43.5373L282.509 32.0908H278.738V50.6813H282.775V38.8631L291.778 50.6813H295.257Z" fill="#308276"/>
<path d="M312.999 35.862V32.0908H297.595V35.862H303.252V50.6813H307.342V35.862H312.999Z" fill="#308276"/>
<path d="M318 51.5513V39H362.02L369.115 45.1847L362.02 51.5513H318Z" fill="#E62F44"/>
<path d="M318 35.5513V23H352.925L360.02 29.1847L352.925 35.5513H318Z" fill="#0A94A8"/>
<path d="M318 19.5513V7H344.194L351.288 13.1847L344.194 19.5513H318Z" fill="#007461"/>
<line x1="80.0547" y1="2.18557e-08" x2="80.0547" y2="52" stroke="#8D93AA"/>
</svg>
